<?xml version="1.0" encoding="UTF-8"?>
<svg id="Layer_2" data-name="Layer 2" xmlns="http://www.w3.org/2000/svg" viewBox="0 0 96.37 102.1">
  <defs>
    <style>
      .cls-1 {
        fill: #c74343;
      }

      .cls-2 {
        fill: #992422;
      }
    </style>
  </defs>
  <g id="Layer_1-2" data-name="Layer 1">
    <g id="Layer_3" data-name="Layer 3">
      <g id="logo_cr">
        <path id="left" class="cls-1" d="M32.15,54.37c9.68-3.24,16.66-12.37,16.66-23.15,0-13.48-10.93-24.41-24.41-24.41S0,17.74,0,31.22c0,4,.97,7.77,2.67,11.1.01.03.02.05.03.08,2.17,4.65,8.15,10.65,10.29,13.22,2.14,2.58,14.28,16.85,17.03,20.68l16.62,25.8v-32.58s-10.23-6.27-14.5-15.16Z"/>
        <path id="right" class="cls-2" d="M96.33,25.75h0c.02-.45.04-.89.04-1.34,0-13.48-10.93-24.41-24.41-24.41s-24.41,10.93-24.41,24.41c0,12.67,9.66,23.09,22.02,24.29-3.1,2.29-8.58,6.4-11.8,9.46-3.87,3.67-11.11,11.37-11.11,11.37v32.58c.61-2.45,7.75-16.11,7.75-16.11,3.98-7.55,7.14-10.4,12.13-15.91,5-5.51,18.15-20.39,23.55-27.53,2.27-2.99,3.73-6.43,4.66-9.41.88-2.3,1.43-4.76,1.57-7.33,0-.04,0-.07,0-.07Z"/>
      </g>
    </g>
  </g>
</svg>